<?xml version="1.0" encoding="UTF-8"?>
<svg version="1.1" xmlns="http://www.w3.org/2000/svg" width="1024" height="1024">
<path d="M0 0 C337.92 0 675.84 0 1024 0 C1024 337.92 1024 675.84 1024 1024 C686.08 1024 348.16 1024 0 1024 C0 686.08 0 348.16 0 0 Z " fill="#FDFDFD" transform="translate(0,0)"/>
<path d="M0 0 C2.63519049 0.00315098 5.26924509 -0.02033617 7.90429688 -0.0456543 C18.30132935 -0.084172 27.80498373 0.77666657 37.90429688 3.31567383 C39.0093457 3.5917749 40.11439453 3.86787598 41.25292969 4.15234375 C45.39348073 5.21098309 49.11164739 6.33279485 52.90429688 8.31567383 C54.35835937 8.90348633 54.35835937 8.90348633 55.84179688 9.50317383 C67.4359593 14.44004299 78.50567366 20.92871614 87.82226562 29.43676758 C89.2459132 30.72152271 90.70987932 31.96260167 92.20507812 33.16333008 C107.70687639 45.99496213 119.89963963 66.58219835 123.90429688 86.31567383 C123.90429688 87.63567383 123.90429688 88.95567383 123.90429688 90.31567383 C124.56429687 90.31567383 125.22429688 90.31567383 125.90429688 90.31567383 C127.89031341 99.01976451 128.2077259 107.41083603 128.15429688 116.31567383 C128.16203125 117.60473633 128.16976562 118.89379883 128.17773438 120.22192383 C128.16400245 126.97803107 127.79892247 133.34610783 126.38793945 139.96069336 C125.89342471 142.36861322 125.59118236 144.74622308 125.34179688 147.19067383 C124.90659492 151.42263771 124.19212369 155.35625111 122.96679688 159.44067383 C122.09575931 162.38200357 121.56822726 165.28629571 121.09179688 168.31567383 C119.76198339 176.02644719 117.41468322 184.29490114 113.90429688 191.31567383 C113.65679688 192.45004883 113.40929687 193.58442383 113.15429688 194.75317383 C112.05468403 199.31698053 110.13206033 203.34678355 108.13085938 207.57739258 C107.02158689 210.05382573 106.1443653 212.47717019 105.34179688 215.06567383 C104.03172854 219.22532582 102.12652477 222.56566425 99.90429688 226.31567383 C99.19273437 227.98629883 99.19273437 227.98629883 98.46679688 229.69067383 C97.23841266 232.5405252 95.94276389 235.07578197 94.40429688 237.75317383 C92.08595735 241.82952912 90.43435548 245.88655682 88.90429688 250.31567383 C88.24429688 250.31567383 87.58429687 250.31567383 86.90429688 250.31567383 C86.64261719 251.17418945 86.3809375 252.03270508 86.11132812 252.91723633 C84.87600769 256.39532298 83.35950801 259.45313636 81.59179688 262.69067383 C81.01816406 263.7502832 80.44453125 264.80989258 79.85351562 265.90161133 C77.90429688 269.31567383 77.90429688 269.31567383 76.59423828 271.07470703 C72.26675394 277.05864843 72.12709725 282.52252445 71.90429688 289.75317383 C71.17131052 303.31342138 69.05301821 316.12010935 65.90429688 329.31567383 C65.62312012 330.50064453 65.34194336 331.68561523 65.05224609 332.90649414 C57.1208931 365.70545145 44.75435768 397.56110116 26.90429688 426.31567383 C26.5056543 426.96084961 26.10701172 427.60602539 25.69628906 428.27075195 C12.55386607 449.42106754 -3.0250228 468.2465657 -20.09570312 486.31567383 C-21.15724609 487.44102539 -21.15724609 487.44102539 -22.24023438 488.58911133 C-26.61142502 493.0938414 -31.31272722 497.06484705 -36.21289062 500.98364258 C-38.07961907 502.49371965 -39.92054991 504.03649691 -41.72851562 505.61645508 C-55.18208865 517.32604641 -70.50011207 526.8903492 -86.19726562 535.29663086 C-88.160706 536.35056606 -90.11289106 537.42351682 -92.06445312 538.49926758 C-98.11281707 541.8103774 -104.13950294 544.98212376 -110.61816406 547.38549805 C-113.01085238 548.28381717 -115.37450032 549.23562508 -117.74023438 550.20239258 C-122.92547109 552.28146249 -128.16835011 554.12216793 -133.47070312 555.87817383 C-134.39189941 556.18335938 -135.3130957 556.48854492 -136.26220703 556.80297852 C-142.81400645 558.94804342 -149.34993021 560.87341115 -156.09570312 562.31567383 C-157.30613281 562.5812207 -158.5165625 562.84676758 -159.76367188 563.12036133 C-172.43769318 565.78991446 -184.63558191 566.48072352 -197.53735352 566.44604492 C-199.8934581 566.44070723 -202.2493701 566.44600815 -204.60546875 566.45239258 C-218.30530879 566.46164765 -231.47047202 565.86627991 -244.84570312 562.62817383 C-245.97113525 562.35980713 -247.09656738 562.09144043 -248.25610352 561.81494141 C-261.52410928 558.57627942 -274.00406824 554.48244856 -286.40820312 548.75317383 C-287.20347412 548.38925537 -287.99874512 548.02533691 -288.81811523 547.65039062 C-294.2229591 545.05366626 -298.46996309 542.34679756 -301.39257812 536.89770508 C-302.22453191 533.84258591 -302.36086997 531.16925224 -302.34570312 528.00317383 C-302.3534375 526.40022461 -302.3534375 526.40022461 -302.36132812 524.76489258 C-302.11116561 521.51645872 -301.39323297 518.66665982 -300.55419922 515.53173828 C-296.97548256 498.23460776 -300.86571317 481.02076805 -310.09570312 466.31567383 C-320.3368951 451.5691917 -334.91567881 440.58939736 -352.64355469 436.71118164 C-372.32329099 433.53703062 -390.1147173 436.95933262 -406.64648438 448.02270508 C-420.56493822 458.30461111 -430.29047882 474.2749829 -433.09570312 491.31567383 C-433.5761545 495.97887832 -433.89479791 500.63250394 -434.09570312 505.31567383 C-438.87684697 501.40769313 -443.14215517 497.31653985 -447.15820312 492.62817383 C-447.98674805 491.66258545 -447.98674805 491.66258545 -448.83203125 490.67749023 C-461.06149584 476.21604518 -471.53757068 460.645789 -481.09570312 444.31567383 C-481.50626953 443.61861328 -481.91683594 442.92155273 -482.33984375 442.20336914 C-494.56756215 421.15377895 -503.02734098 397.80771686 -509.09570312 374.31567383 C-509.32837891 373.45135742 -509.56105469 372.58704102 -509.80078125 371.6965332 C-511.43602195 365.60747453 -512.84290514 359.49449075 -514.09570312 353.31567383 C-514.29325195 352.35999512 -514.49080078 351.40431641 -514.69433594 350.41967773 C-528.9984845 277.97419866 -509.34832893 201.35516419 -468.70361328 140.66577148 C-461.15727924 129.63616148 -453.28988744 119.02680023 -444.09570312 109.31567383 C-442.90135313 107.96754486 -441.71359755 106.61353871 -440.53320312 105.25317383 C-439.97375 104.61379883 -439.41429687 103.97442383 -438.83789062 103.31567383 C-437.60818463 101.90399341 -436.38481367 100.48678247 -435.16601562 99.06567383 C-431.40677974 94.73597024 -427.56595869 90.7925176 -423.18164062 87.09692383 C-421.78206487 85.90178049 -420.41185868 84.67143427 -419.07226562 83.40942383 C-405.51685141 70.66257818 -389.90683903 60.04906458 -374.09570312 50.31567383 C-373.42007324 49.89479492 -372.74444336 49.47391602 -372.04833984 49.0402832 C-353.43087986 37.49470907 -333.60552107 28.90748629 -313.09570312 21.31567383 C-312.41378906 21.05947266 -311.731875 20.80327148 -311.02929688 20.53930664 C-250.63152704 -1.9335366 -182.4888348 -0.51369733 -121.15820312 16.50317383 C-120.29396729 16.74076416 -119.42973145 16.97835449 -118.53930664 17.22314453 C-114.51649376 18.38900586 -111.24355741 19.40798282 -108.09570312 22.31567383 C-109.05089844 23.16387695 -110.00609375 24.01208008 -110.99023438 24.88598633 C-119.70649917 32.74691673 -127.18788758 40.83616736 -134.09570312 50.31567383 C-134.69253906 51.1071582 -135.289375 51.89864258 -135.90429688 52.71411133 C-141.88906884 60.89473487 -146.85288531 69.80025297 -151.99169922 78.52490234 C-153.09570312 80.31567383 -153.09570312 80.31567383 -154.09570312 81.31567383 C-155.8926435 81.41206567 -157.69341205 81.43754808 -159.49293518 81.43592834 C-161.2493483 81.43799034 -161.2493483 81.43799034 -163.04124451 81.44009399 C-164.33740189 81.43649872 -165.63355927 81.43290344 -166.96899414 81.42919922 C-168.33858234 81.42891735 -169.70817068 81.42907508 -171.07775879 81.42964172 C-174.80693261 81.4299297 -178.53607453 81.42403291 -182.26524091 81.41706777 C-186.15834725 81.4108343 -190.05145425 81.41023044 -193.94456482 81.40904236 C-201.32168459 81.40592902 -208.69878961 81.3977156 -216.07590288 81.38769287 C-226.04109312 81.37444658 -236.00628737 81.36903184 -245.97148418 81.36319065 C-261.67956822 81.35377571 -277.38762113 81.33385682 -293.09570312 81.31567383 C-293.09570312 125.20567383 -293.09570312 169.09567383 -293.09570312 214.31567383 C-337.31570313 214.31567383 -381.53570312 214.31567383 -427.09570312 214.31567383 C-427.09570312 259.85567383 -427.09570312 305.39567383 -427.09570312 352.31567383 C-382.87570312 352.31567383 -338.65570313 352.31567383 -293.09570312 352.31567383 C-292.72070312 406.00317383 -292.72070312 406.00317383 -292.61767578 422.82617188 C-292.57767513 427.8926263 -292.57767513 427.8926263 -292.5352478 432.95906067 C-292.51780007 435.17978057 -292.50389421 437.40053034 -292.49301147 439.62129211 C-292.42168571 453.55894997 -291.92009378 467.27377094 -290.27272606 481.12118244 C-290.05304669 483.84447079 -290.09570312 486.58353941 -290.09570312 489.31567383 C-223.76570312 488.82067383 -223.76570312 488.82067383 -156.09570312 488.31567383 C-155.76570313 443.76567383 -155.43570312 399.21567383 -155.09570312 353.31567383 C-108.23570312 353.31567383 -61.37570312 353.31567383 -13.09570312 353.31567383 C-13.09570312 307.11567383 -13.09570312 260.91567383 -13.09570312 213.31567383 C-44.11570312 213.31567383 -75.13570312 213.31567383 -107.09570312 213.31567383 C-99.09492188 197.31411133 -99.09492188 197.31411133 -95.59570312 191.12817383 C-94.73234664 189.58524717 -93.86907068 188.04227546 -93.00585938 186.49926758 C-92.03593701 184.77133017 -91.06587645 183.04347034 -90.09570312 181.31567383 C-82.04123225 166.95853755 -74.11092703 152.5517087 -66.40820312 138.00317383 C-65.68627921 136.64147708 -64.96427457 135.27982313 -64.2421875 133.91821289 C-60.26810774 126.42302584 -60.26810774 126.42302584 -56.30761719 118.9206543 C-45.12075973 97.7126452 -45.12075973 97.7126452 -38.09570312 90.31567383 C-37.29390625 89.44813477 -36.49210937 88.5805957 -35.66601562 87.68676758 C-30.84650032 82.65484202 -26.18720458 78.6998413 -20.09570312 75.31567383 C-6.26082102 87.70781218 6.86296057 100.3296865 17.90429688 115.31567383 C18.50113281 116.10586914 19.09796875 116.89606445 19.71289062 117.71020508 C34.35980745 137.76629503 52.1972982 166.13628932 54.90429688 191.31567383 C55.56429687 191.31567383 56.22429688 191.31567383 56.90429688 191.31567383 C56.81148437 190.35661133 56.81148437 190.35661133 56.71679688 189.37817383 C56.91974438 186.06336453 57.80329437 183.31372848 58.91210938 180.19848633 C59.70696106 177.88903536 60.44170996 175.5828095 61.14648438 173.24536133 C61.36409424 172.52711182 61.5817041 171.8088623 61.8059082 171.06884766 C62.24237613 169.62207015 62.67459178 168.17400216 63.10229492 166.72460938 C64.68243377 161.53753694 64.68243377 161.53753694 66.90429688 159.31567383 C67.50523232 156.80842163 68.01917341 154.34983844 68.46679688 151.81567383 C69.79308364 144.5381003 69.79308364 144.5381003 70.90429688 142.31567383 C74.76465779 122.81662453 75.51329545 100.25747585 65.90429688 82.31567383 C65.53949219 81.57704102 65.1746875 80.8384082 64.79882812 80.07739258 C59.34541412 69.62337511 51.62044353 62.79310493 41.90429688 56.31567383 C41.10121094 55.7459082 40.298125 55.17614258 39.47070312 54.58911133 C32.72690167 50.09324369 25.83817998 48.61893417 17.90429688 47.31567383 C17.90429688 46.65567383 17.90429688 45.99567383 17.90429688 45.31567383 C13.44465392 45.56714388 8.98705501 45.84538897 4.52929688 46.12817383 C3.27761719 46.19842773 2.0259375 46.26868164 0.73632812 46.34106445 C-9.04503844 46.98120624 -17.63608717 48.14357553 -25.84570312 53.81567383 C-28.54235249 55.65650034 -31.05792304 57.29807002 -34.02148438 58.67895508 C-37.74667646 60.66225303 -40.49292018 63.10979721 -43.53320312 66.00317383 C-44.10087402 66.53628174 -44.66854492 67.06938965 -45.25341797 67.61865234 C-50.99691979 73.07029285 -56.04116968 78.48698592 -60.09570312 85.31567383 C-60.75570313 85.31567383 -61.41570312 85.31567383 -62.09570312 85.31567383 C-62.35738281 86.19868164 -62.6190625 87.08168945 -62.88867188 87.99145508 C-64.07171586 91.24961182 -65.46239003 93.65132803 -67.40820312 96.50317383 C-70.93424469 101.8733794 -73.61311012 107.40092459 -76.09570312 113.31567383 C-76.75570313 113.31567383 -77.41570312 113.31567383 -78.09570312 113.31567383 C-78.40314453 114.25540039 -78.40314453 114.25540039 -78.71679688 115.21411133 C-79.12091797 116.44000977 -79.12091797 116.44000977 -79.53320312 117.69067383 C-79.80003906 118.5027832 -80.066875 119.31489258 -80.34179688 120.15161133 C-81.09570312 122.31567383 -81.09570312 122.31567383 -82.09570312 124.31567383 C-82.75570313 124.31567383 -83.41570312 124.31567383 -84.09570312 124.31567383 C-84.40507813 125.73879883 -84.40507813 125.73879883 -84.72070312 127.19067383 C-85.92965424 131.43903022 -88.12237499 134.84690477 -90.45117188 138.56958008 C-92.18395267 141.4630359 -93.67928392 144.41022698 -95.15820312 147.44067383 C-96.78955434 150.77082231 -98.43138624 153.96918599 -100.47070312 157.06567383 C-103.00797718 160.96980197 -105.03743558 165.08418059 -107.09570312 169.25317383 C-112.2185867 179.62950567 -117.97925495 189.50372716 -123.96289062 199.40551758 C-124.58421875 200.44836914 -125.20554687 201.4912207 -125.84570312 202.56567383 C-126.41804688 203.51958008 -126.99039062 204.47348633 -127.58007812 205.45629883 C-129.1155989 208.35320915 -130.14996911 211.18177091 -131.09570312 214.31567383 C-131.75570313 214.31567383 -132.41570312 214.31567383 -133.09570312 214.31567383 C-133.30453125 215.08782227 -133.51335937 215.8599707 -133.72851562 216.65551758 C-135.61763194 221.71295183 -138.27760276 226.20961316 -140.97070312 230.87817383 C-141.54570557 231.88380371 -142.12070801 232.88943359 -142.71313477 233.92553711 C-143.91007346 236.01817428 -145.10907285 238.10963402 -146.31005859 240.19995117 C-148.02185029 243.18681002 -149.71959071 246.18114165 -151.41210938 249.17895508 C-152.45237646 251.01624987 -153.49273698 252.85349176 -154.53320312 254.69067383 C-155.00419434 255.52671143 -155.47518555 256.36274902 -155.96044922 257.22412109 C-158.68784921 262.01707587 -161.5738934 266.64367292 -164.68579102 271.19702148 C-166.18196854 273.32753885 -166.18196854 273.32753885 -167.29534912 275.91261292 C-169.09570312 278.31567383 -169.09570312 278.31567383 -171.88615417 278.91694641 C-173.01644547 278.90584335 -174.14673676 278.8947403 -175.3112793 278.88330078 C-176.59238083 278.88292313 -177.87348236 278.88254547 -179.19340515 278.88215637 C-180.59183724 278.856623 -181.99025944 278.83054302 -183.38867188 278.80395508 C-184.81926743 278.79462834 -186.24987897 278.78751157 -187.68049622 278.78251648 C-191.44400202 278.76343497 -195.20654134 278.71432638 -198.96966553 278.65899658 C-202.81037317 278.60782768 -206.65123717 278.58500762 -210.4921875 278.55981445 C-218.0271331 278.50620692 -225.56128265 278.42088251 -233.09570312 278.31567383 C-231.79495776 271.50588929 -229.05363279 265.76396396 -225.45117188 259.85473633 C-221.98330307 254.13066372 -218.55407859 248.38420836 -215.13671875 242.62988281 C-214.44349447 241.46339964 -213.74948552 240.29738242 -213.0546875 239.13183594 C-208.1955416 230.9794977 -203.34236999 222.80900756 -199.09570312 214.31567383 C-198.43570312 214.31567383 -197.77570313 214.31567383 -197.09570312 214.31567383 C-196.98226563 213.58864258 -196.86882812 212.86161133 -196.75195312 212.11254883 C-196.06737597 209.19494621 -195.08235681 207.15905859 -193.59570312 204.56567383 C-190.88837185 199.74181978 -188.24592808 194.89188915 -185.65820312 190.00317383 C-185.27011475 189.27050293 -184.88202637 188.53783203 -184.48217773 187.78295898 C-182.15024136 183.36285964 -179.87862411 178.9181737 -177.65820312 174.44067383 C-171.29041841 161.63224646 -164.55950407 149.0522356 -157.47070312 136.62817383 C-153.03890143 128.85953143 -148.84516845 121.03776042 -144.91992188 113.00317383 C-143.06929979 109.22402975 -141.09439535 105.51815345 -139.09570312 101.81567383 C-136.32256159 96.67714601 -133.67640351 91.4907925 -131.09570312 86.25317383 C-125.17351316 74.33810271 -118.99215512 63.33862461 -110.09570312 53.31567383 C-109.23976563 52.33856445 -108.38382813 51.36145508 -107.50195312 50.35473633 C-99.57595515 41.43224513 -91.17776967 32.78811161 -81.09570312 26.31567383 C-79.76548174 25.43145095 -78.43611028 24.54594859 -77.10742188 23.65942383 C-75.66636329 22.71097871 -74.22495079 21.76307113 -72.78320312 20.81567383 C-72.07486328 20.34258789 -71.36652344 19.86950195 -70.63671875 19.38208008 C-66.2971102 16.54146596 -61.96169152 14.21237312 -57.18017578 12.19873047 C-55.01351329 11.28085529 -52.90146224 10.2771688 -50.78320312 9.25317383 C-46.25423497 7.2270565 -41.62801712 6.09138616 -36.80664062 4.96801758 C-34.00948176 4.34159888 -34.00948176 4.34159888 -31.03320312 3.25317383 C-20.83762245 -0.0007349 -10.59306146 -0.02642393 0 0 Z " fill="#51BCCD" transform="translate(717.095703125,188.684326171875)"/>
<path d="M0 0 C0.86423584 0.23759033 1.72847168 0.47518066 2.61889648 0.7199707 C6.64170937 1.88583203 9.91464572 2.90480899 13.0625 5.8125 C12.10730469 6.66070312 11.15210938 7.50890625 10.16796875 8.3828125 C1.45170396 16.2437429 -6.02968446 24.33299353 -12.9375 33.8125 C-13.53433594 34.60398438 -14.13117188 35.39546875 -14.74609375 36.2109375 C-20.73086571 44.39156104 -25.69468218 53.29707914 -30.83349609 62.02172852 C-31.9375 63.8125 -31.9375 63.8125 -32.9375 64.8125 C-34.73444038 64.90889184 -36.53520893 64.93437425 -38.33473206 64.93275452 C-40.09114517 64.93481651 -40.09114517 64.93481651 -41.88304138 64.93692017 C-43.17919876 64.93332489 -44.47535614 64.92972961 -45.81079102 64.92602539 C-47.18037921 64.92574352 -48.54996756 64.92590125 -49.91955566 64.9264679 C-53.64872948 64.92675588 -57.37787141 64.92085909 -61.10703778 64.91389394 C-65.00014413 64.90766047 -68.89325113 64.90705661 -72.78636169 64.90586853 C-80.16348146 64.90275519 -87.54058649 64.89454178 -94.91769975 64.88451904 C-104.88288999 64.87127275 -114.84808424 64.86585801 -124.81328106 64.86001682 C-140.52136509 64.85060189 -156.22941801 64.83068299 -171.9375 64.8125 C-171.9375 108.7025 -171.9375 152.5925 -171.9375 197.8125 C-216.1575 197.8125 -260.3775 197.8125 -305.9375 197.8125 C-305.9375 243.3525 -305.9375 288.8925 -305.9375 335.8125 C-261.7175 335.8125 -217.4975 335.8125 -171.9375 335.8125 C-171.625 389 -171.625 389 -171.54956055 405.60229492 C-172.20746709 472.54760232 -172.20746709 472.54760232 -139.52490234 528.65014648 C-134.78957196 533.15959185 -129.67315047 536.66714329 -123.9375 539.8125 C-123.05835938 540.29460938 -122.17921875 540.77671875 -121.2734375 541.2734375 C-116.57974631 543.72663562 -112.08817256 545.58081743 -106.9375 546.8125 C-106.9375 547.1425 -106.9375 547.4725 -106.9375 547.8125 C-113.38101297 548.06783734 -119.05065594 547.16711984 -125.3125 545.6875 C-126.27712158 545.4615918 -127.24174316 545.23568359 -128.2355957 545.00292969 C-141.09963789 541.90428405 -153.23634642 537.80771286 -165.25 532.25 C-166.04494873 531.88616211 -166.83989746 531.52232422 -167.65893555 531.14746094 C-173.06429432 528.55102581 -177.31161039 525.84390262 -180.234375 520.39453125 C-181.06632878 517.33941208 -181.20266684 514.66607841 -181.1875 511.5 C-181.19523437 509.89705078 -181.19523437 509.89705078 -181.203125 508.26171875 C-180.95296248 505.01328489 -180.23502985 502.16348599 -179.39599609 499.02856445 C-175.81727943 481.73143393 -179.70751004 464.51759422 -188.9375 449.8125 C-199.17869197 435.06601787 -213.75747569 424.08622353 -231.48535156 420.20800781 C-251.16508786 417.0338568 -268.95651417 420.4561588 -285.48828125 431.51953125 C-299.40673509 441.80143728 -309.1322757 457.77180907 -311.9375 474.8125 C-312.41795137 479.47570449 -312.73659478 484.12933011 -312.9375 488.8125 C-317.71864385 484.9045193 -321.98395204 480.81336602 -326 476.125 C-326.82854492 475.15941162 -326.82854492 475.15941162 -327.67382812 474.17431641 C-339.90329272 459.71287135 -350.37936755 444.14261517 -359.9375 427.8125 C-360.34806641 427.11543945 -360.75863281 426.41837891 -361.18164062 425.70019531 C-373.40935903 404.65060512 -381.86913786 381.30454303 -387.9375 357.8125 C-388.17017578 356.94818359 -388.40285156 356.08386719 -388.64257812 355.19335938 C-390.27781882 349.1043007 -391.68470201 342.99131693 -392.9375 336.8125 C-393.13504883 335.85682129 -393.33259766 334.90114258 -393.53613281 333.91650391 C-407.84028137 261.47102484 -388.19012581 184.85199036 -347.54541016 124.16259766 C-339.99907612 113.13298765 -332.13168431 102.5236264 -322.9375 92.8125 C-321.74315001 91.46437104 -320.55539443 90.11036488 -319.375 88.75 C-318.81554687 88.110625 -318.25609375 87.47125 -317.6796875 86.8125 C-316.44998151 85.40081958 -315.22661054 83.98360865 -314.0078125 82.5625 C-310.24857662 78.23279641 -306.40775556 74.28934377 -302.0234375 70.59375 C-300.62386174 69.39860666 -299.25365555 68.16826044 -297.9140625 66.90625 C-284.35864828 54.15940435 -268.7486359 43.54589075 -252.9375 33.8125 C-252.26187012 33.39162109 -251.58624023 32.97074219 -250.89013672 32.53710938 C-232.27267674 20.99153524 -212.44731795 12.40431246 -191.9375 4.8125 C-191.25558594 4.55629883 -190.57367188 4.30009766 -189.87109375 4.03613281 C-129.47332391 -18.43671042 -61.33063168 -17.01687115 0 0 Z " fill="#116678" transform="translate(595.9375,205.1875)"/>
<path d="M0 0 C0.33 0 0.66 0 1 0 C1.65140456 3.79073089 2.29508257 7.58273657 2.9375 11.375 C3.11990234 12.43589844 3.30230469 13.49679687 3.49023438 14.58984375 C5.36383949 25.69521224 6.16193966 36.35840487 6.125 47.625 C6.12886719 48.78128906 6.13273437 49.93757812 6.13671875 51.12890625 C6.12117693 65.19425533 5.1889981 78.73457438 2.58081055 92.53710938 C2.186664 94.62943792 1.81016403 96.72440884 1.43554688 98.8203125 C-0.19120998 107.73348533 -2.36891421 116.32348864 -5 125 C-5.64598039 127.22912406 -6.29183225 129.45828537 -6.9375 131.6875 C-8.50827964 136.75571869 -10.44984638 141.4854345 -12.7265625 146.2734375 C-14.02125219 149.04550316 -15.17238849 151.84869885 -16.3125 154.6875 C-26.73408844 179.83524602 -41.12781735 202.72998614 -58 224 C-58.70382812 224.89847656 -59.40765625 225.79695312 -60.1328125 226.72265625 C-70.86611272 240.16898623 -82.92973707 252.81255552 -96 264 C-96.92425781 264.81339844 -97.84851563 265.62679688 -98.80078125 266.46484375 C-140.40143046 302.78413463 -191.31642297 324.30265084 -245 335 C-245.9089502 335.18852539 -246.81790039 335.37705078 -247.75439453 335.57128906 C-274.73787026 341.14053793 -304.78153844 340.95645972 -332 337 C-332.68255859 336.90348145 -333.36511719 336.80696289 -334.06835938 336.70751953 C-370.74776 331.28046536 -404.5869822 315.5853192 -433 292 C-433.63550781 291.48824219 -434.27101563 290.97648437 -434.92578125 290.44921875 C-438.81930115 287.2463454 -442.09845608 283.73971777 -445.35546875 279.89453125 C-446.81702458 278.21079116 -448.32643266 276.66345585 -449.9375 275.125 C-452 273 -452 273 -452 271 C-451.23558594 270.79246094 -450.47117187 270.58492187 -449.68359375 270.37109375 C-442.38194246 268.27110018 -435.76900733 265.68753491 -429.02709961 262.19897461 C-424.49514845 259.93330429 -424.49514845 259.93330429 -422.02075195 260.26660156 C-419.82723437 261.06270242 -418.31085003 262.0338926 -416.453125 263.44140625 C-415.78152344 263.93874268 -415.10992187 264.4360791 -414.41796875 264.94848633 C-413.70253906 265.48111084 -412.98710937 266.01373535 -412.25 266.5625 C-404.21204422 272.37640305 -396.05161127 276.97463878 -387 281 C-386.31437988 281.30776367 -385.62875977 281.61552734 -384.92236328 281.93261719 C-374.5266055 286.5459908 -363.97877254 290.06166287 -353 293 C-351.906875 293.29777344 -350.81375 293.59554688 -349.6875 293.90234375 C-283.57747177 311.2045777 -213.82225516 292.77932882 -156.0078125 259.41015625 C-144.5792159 252.64623599 -133.92162744 244.69461663 -123.63085938 236.32226562 C-122.11360196 235.09210602 -120.58081349 233.88117042 -119.046875 232.671875 C-111.33328403 226.41215458 -104.28712635 219.49859401 -97.25 212.5 C-96.76008575 212.01535278 -96.27017151 211.53070557 -95.76541138 211.03137207 C-89.04857566 204.37040562 -82.84629161 197.44099297 -77 190 C-76.13060791 188.90365234 -76.13060791 188.90365234 -75.24365234 187.78515625 C-67.67504756 178.17277642 -60.54903467 168.33441021 -54 158 C-53.45230957 157.14003418 -53.45230957 157.14003418 -52.89355469 156.26269531 C-39.83319263 135.58866927 -29.1030292 113.51073851 -21.203125 90.37109375 C-20.25707752 87.72031785 -19.2290674 85.1718808 -18.13671875 82.58203125 C-15.34804406 75.64671289 -13.4655058 68.46548358 -11.5625 61.25 C-11.36679413 60.51399567 -11.17108826 59.77799133 -10.9694519 59.01968384 C-6.9525141 43.81020364 -4.27909905 28.56207991 -2 13 C-1.62572864 10.54786627 -1.2494954 8.09603101 -0.87109375 5.64453125 C-0.70407959 4.56147705 -0.53706543 3.47842285 -0.36499023 2.36254883 C-0.24454346 1.58290771 -0.12409668 0.8032666 0 0 Z " fill="#1B7EA2" transform="translate(809,475)"/>
<path d="M0 0 C10.13939463 7.09757624 17.08533474 18.73507617 19.58203125 30.81640625 C21.60719179 46.24169446 19.16806463 59.21779853 10 72 C2.17002788 82.12936892 -6.46844036 88.21508574 -19 91 C-22.802593 91.43696787 -26.54956875 91.52489642 -30.375 91.5 C-31.38506104 91.49500488 -32.39512207 91.49000977 -33.43579102 91.48486328 C-44.88348088 91.2172861 -53.43918069 87.53996847 -62 80 C-62.67804688 79.42636719 -63.35609375 78.85273437 -64.0546875 78.26171875 C-73.53223499 69.62463302 -78.50922935 57.20180566 -79.3515625 44.54296875 C-79.92975737 30.71910763 -77.18439618 19.67567701 -68 9 C-67.56171875 8.40832031 -67.1234375 7.81664062 -66.671875 7.20703125 C-62.43067969 1.68616495 -57.02341414 -1.63421949 -51 -5 C-49.89591797 -5.65742187 -49.89591797 -5.65742187 -48.76953125 -6.328125 C-33.3122706 -14.0977923 -13.68757234 -8.69345811 0 0 Z " fill="#29AFCE" transform="translate(380,651)"/>
<path d="M0 0 C18.81 0 37.62 0 57 0 C57.66 6.93 58.32 13.86 59 21 C63.14276197 39.06244219 72.50634595 53.94380578 88.0625 64.25 C97.53346115 69.78877088 108.07429132 73.75909053 119 75 C119 75.33 119 75.66 119 76 C110.18056894 77.0620574 101.42588507 77.15420609 92.55834961 77.13037109 C90.20224503 77.1250334 87.84633302 77.13033432 85.49023438 77.13671875 C76.27809488 77.14033916 67.18203703 76.81227491 58 76 C58 75.34 58 74.68 58 74 C57.40574219 73.79246094 56.81148438 73.58492187 56.19921875 73.37109375 C44.6984782 69.09632394 35.80907004 62.426067 27 54 C26.31164062 53.38640625 25.62328125 52.7728125 24.9140625 52.140625 C11.12068224 39.38311124 3.07102115 20.27988782 0 2 C0 1.34 0 0.68 0 0 Z " fill="#8CD1E1" transform="translate(427,678)"/>
<path d="M0 0 C6.57602419 5.26081935 12.57014646 10.77421385 14.22607422 19.40576172 C14.41918476 21.64132977 14.47060293 23.81899116 14.4375 26.0625 C14.428396 26.84858643 14.41929199 27.63467285 14.40991211 28.44458008 C14.08707034 36.64712125 11.56624955 42.57105343 5.65625 48.36328125 C-2.52108054 55.12638168 -10.96609165 57.69396251 -21.54296875 57.51953125 C-30.38829012 56.61801401 -37.46264014 51.8781908 -43.1875 45.25 C-48.42980426 36.80476044 -50.30022582 29.17725974 -49.1875 19.25 C-46.0277164 9.23999851 -39.82828191 2.61277383 -30.9375 -2.6875 C-20.58058306 -6.68903609 -9.63231309 -5.28832875 0 0 Z " fill="#BDEBF4" transform="translate(368.1875,661.75)"/>
<path d="M0 0 C0.33 0 0.66 0 1 0 C1.01458252 1.01610352 1.02916504 2.03220703 1.04418945 3.07910156 C1.85752149 55.57357382 13.54287528 103.14210105 42 148 C42.59844727 148.94528564 42.59844727 148.94528564 43.20898438 149.90966797 C51.94080932 163.58038745 61.45663412 176.63612928 72.59375 188.4453125 C74.58932363 190.56398969 76.50223166 192.71119886 78.375 194.9375 C80.77674038 197.78607579 83.32657381 200.40520399 86 203 C85.60167969 203.50789062 85.20335937 204.01578125 84.79296875 204.5390625 C81.71433825 208.53903498 79.08404386 212.36879143 77 217 C62.18490756 208.77787825 51.17500952 188.87047709 42 175 C41.33613281 174.00226563 40.67226562 173.00453125 39.98828125 171.9765625 C25.83799773 149.8463497 15.41206747 126.11836277 8 101 C7.63003906 99.78183594 7.26007813 98.56367187 6.87890625 97.30859375 C4.65258189 89.55544082 3.15764705 81.76059638 1.8125 73.8125 C1.64540527 72.82677002 1.47831055 71.84104004 1.30615234 70.82543945 C-0.89067194 57.24517398 -1.15893952 43.87043795 -1.13037109 30.14331055 C-1.12497012 27.04536135 -1.13036399 23.9475544 -1.13671875 20.84960938 C-1.13605863 18.86979135 -1.13477883 16.88997341 -1.1328125 14.91015625 C-1.13584885 13.52885277 -1.13584885 13.52885277 -1.13894653 12.11964417 C-1.1237053 7.952579 -1.0620192 4.06193342 0 0 Z " fill="#1A95BD" transform="translate(214,443)"/>
<path d="M0 0 C0.33 0 0.66 0 1 0 C1.28081595 4.30584457 0.95022806 7.42846769 -0.5 11.5 C-3.95733179 22.38480536 -2.76385106 33.73256945 2 44 C7.91560307 55.02612407 16.33206023 62.79413803 28.25 66.74609375 C38.92708098 69.51069507 51.78310155 69.00683529 61.625 63.8125 C70.81114869 58.34150885 70.81114869 58.34150885 77 50 C77.61875 49.46375 78.2375 48.9275 78.875 48.375 C84.63845616 41.93349017 85.57363245 33.6534302 86.31689453 25.35839844 C86.80632948 20.19367052 86.80632948 20.19367052 89 18 C93.0069156 24.28284367 91.74927916 34.33023502 90.3125 41.3671875 C86.00520751 55.18641757 77.39031387 67.33552884 64.84765625 74.74609375 C56.82223363 78.27992182 49.37081506 79.55691895 40.625 79.5 C39.61493896 79.49500488 38.60487793 79.49000977 37.56420898 79.48486328 C26.11651912 79.2172861 17.56081931 75.53996847 9 68 C8.32195312 67.42636719 7.64390625 66.85273437 6.9453125 66.26171875 C-2.53223499 57.62463302 -7.50922935 45.20180566 -8.3515625 32.54296875 C-8.86480695 20.1791211 -6.85336298 10.55840235 0 0 Z " fill="#1577A4" transform="translate(309,663)"/>
<path d="M0 0 C0.33 0.66 0.66 1.32 1 2 C0.01 4.31 -0.98 6.62 -2 9 C19.12 9 40.24 9 62 9 C62 9.33 62 9.66 62 10 C39.89 10 17.78 10 -5 10 C-3.51799926 6.29499816 -2.091496 3.32738 0 0 Z " fill="#B9DDE9" transform="translate(486,458)"/>
<path d="M0 0 C0.33 0 0.66 0 1 0 C1.50505263 2.89503383 2.0042022 5.79087953 2.5 8.6875 C2.64308594 9.50412109 2.78617188 10.32074219 2.93359375 11.16210938 C3.61165962 15.14978248 4.19858392 18.93730404 4 23 C1.4345406 20.4345406 1.45953913 18.52313332 1 15 C0.01 16.32 -0.98 17.64 -2 19 C-1.85870713 16.58299013 -1.71213513 14.16649571 -1.5625 11.75 C-1.52318359 11.06808594 -1.48386719 10.38617188 -1.44335938 9.68359375 C-1.23333528 6.35551959 -0.98065998 3.19744598 0 0 Z " fill="#27AAC4" transform="translate(809,475)"/>
<path d="M0 0 C0.33 0 0.66 0 1 0 C1.40214229 6.16618181 -0.03181664 11.17745757 -2 17 C-2.33 16.01 -2.66 15.02 -3 14 C-3.99 14 -4.98 14 -6 14 C-2.99633316 4.22210581 -2.99633316 4.22210581 0 0 Z " fill="#3190BB" transform="translate(309,663)"/>
<path d="M0 0 C0.33 0 0.66 0 1 0 C1 5.94 1 11.88 1 18 C1.99 18.33 2.98 18.66 4 19 C3.34 19.66 2.68 20.32 2 21 C1.6936141 23.73434962 1.4886664 26.38279821 1.375 29.125 C1.33632813 29.87910156 1.29765625 30.63320313 1.2578125 31.41015625 C1.16348969 33.27303184 1.08065338 35.13648255 1 37 C0.67 37 0.34 37 0 37 C0 24.79 0 12.58 0 0 Z " fill="#35B9C6" transform="translate(704,455)"/>
<path d="M0 0 C0.66 0.33 1.32 0.66 2 1 C-0.64 6.28 -3.28 11.56 -6 17 C-6.66 15.68 -7.32 14.36 -8 13 C-6.69921875 10.01953125 -6.69921875 10.01953125 -4.6875 6.8125 C-4.03136719 5.74644531 -3.37523437 4.68039062 -2.69921875 3.58203125 C-1 1 -1 1 0 0 Z " fill="#8AD1E1" transform="translate(612,349)"/>
<path d="M0 0 C0.66 0 1.32 0 2 0 C1.50318002 5.66374782 0.3820458 9.77782267 -2 15 C-3.05618763 17.98217683 -4.03656546 20.98670472 -5 24 C-6.14184472 20.6252898 -5.84408845 18.60566936 -4.78515625 15.234375 C-4.37426758 13.90019531 -4.37426758 13.90019531 -3.95507812 12.5390625 C-3.66052734 11.61867188 -3.36597656 10.69828125 -3.0625 9.75 C-2.77181641 8.81414062 -2.48113281 7.87828125 -2.18164062 6.9140625 C-1.46343503 4.6063855 -0.73596262 2.30206318 0 0 Z " fill="#98D0DF" transform="translate(782,350)"/>
<path d="M0 0 C0.33 0.66 0.66 1.32 1 2 C0.01 4.31 -0.98 6.62 -2 9 C3.94 9 9.88 9 16 9 C16 9.33 16 9.66 16 10 C9.07 10 2.14 10 -5 10 C-3.51799926 6.29499816 -2.091496 3.32738 0 0 Z " fill="#A3D6E5" transform="translate(486,458)"/>
<path d="M0 0 C5.28 1.32 10.56 2.64 16 4 C16 4.66 16 5.32 16 6 C10.34979382 5.39891424 5.33835539 3.92471317 0 2 C0 1.34 0 0.68 0 0 Z " fill="#146796" transform="translate(448,776)"/>
<path d="M0 0 C1.41805831 0.28482368 2.83440379 0.57818144 4.25 0.875 C5.03890625 1.03742187 5.8278125 1.19984375 6.640625 1.3671875 C8.96831144 1.99150075 10.89031952 2.84838542 13 4 C7.78020872 4.1799928 3.92737019 3.97094808 -1 2 C-0.67 1.34 -0.34 0.68 0 0 Z " fill="#30708C" transform="translate(476,749)"/>
<path d="M0 0 C2 3 2 3 1.75 6.5 C1 10 1 10 -1 13 C-1.02686553 11.02090602 -1.04633375 9.04171029 -1.0625 7.0625 C-1.07410156 5.96035156 -1.08570313 4.85820312 -1.09765625 3.72265625 C-1 1 -1 1 0 0 Z " fill="#1AA4CB" transform="translate(215,487)"/>
<path d="M0 0 C1.25127906 3.54667178 0.72285053 5.72253438 -0.4375 9.25 C-0.72496094 10.14203125 -1.01242187 11.0340625 -1.30859375 11.953125 C-1.53675781 12.62859375 -1.76492188 13.3040625 -2 14 C-4 11 -4 11 -3.8125 8.6875 C-2.87281219 5.57930187 -1.5292649 2.85906047 0 0 Z " fill="#0B8AB8" transform="translate(309,666)"/>
<path d="M0 0 C0.66 0 1.32 0 2 0 C0.55746343 3.36591866 -1.33264727 5.51047079 -4 8 C-4.66 7.67 -5.32 7.34 -6 7 C-5.04882866 5.8274869 -4.08882991 4.66212985 -3.125 3.5 C-2.59132813 2.8503125 -2.05765625 2.200625 -1.5078125 1.53125 C-0.76144531 0.77328125 -0.76144531 0.77328125 0 0 Z " fill="#226C82" transform="translate(288,281)"/>
<path d="M0 0 C0.66 0.33 1.32 0.66 2 1 C0.35 4.3 -1.3 7.6 -3 11 C-3.33 11 -3.66 11 -4 11 C-4.49230769 4.6 -4.49230769 4.6 -2 1.5625 C-1.34 1.046875 -0.68 0.53125 0 0 Z " fill="#179FC8" transform="translate(314,658)"/>
<path d="M0 0 C0.66 0 1.32 0 2 0 C0.4169423 4.2742558 -2.50568404 6.26531794 -6 9 C-4.4722133 5.56247993 -2.49818944 2.81046312 0 0 Z " fill="#196780" transform="translate(277,293)"/>
<path d="M0 0 C0.33 0 0.66 0 1 0 C1.33 2.97 1.66 5.94 2 9 C1.01 9.495 1.01 9.495 0 10 C-1.49106457 7.01787087 -1.11941467 4.28390342 -1 1 C-0.67 0.67 -0.34 0.34 0 0 Z " fill="#8DD2E1" transform="translate(842,279)"/>
<path d="M0 0 C0.33 0 0.66 0 1 0 C1.33 2.97 1.66 5.94 2 9 C1.01 9.33 0.02 9.66 -1 10 C-0.67 6.7 -0.34 3.4 0 0 Z " fill="#32AFC2" transform="translate(809,475)"/>
</svg>
